<?xml version="1.0" encoding="UTF-8" standalone="no"?>
<svg
   xmlns:dc="http://purl.org/dc/elements/1.1/"
   xmlns:cc="http://creativecommons.org/ns#"
   xmlns:rdf="http://www.w3.org/1999/02/22-rdf-syntax-ns#"
   xmlns:svg="http://www.w3.org/2000/svg"
   xmlns="http://www.w3.org/2000/svg"
   xmlns:xlink="http://www.w3.org/1999/xlink"
   xmlns:sodipodi="http://sodipodi.sourceforge.net/DTD/sodipodi-0.dtd"
   xmlns:inkscape="http://www.inkscape.org/namespaces/inkscape"
   width="265"
   height="200"
   id="svg2"
   version="1.1"
   inkscape:version="0.92.2 5c3e80d, 2017-08-06"
   sodipodi:docname="decorative-border.svg"
   inkscape:export-filename="/Users/hillary/websites/sorcerers-cave/public/gfx/decorative-border.png"
   inkscape:export-xdpi="96"
   inkscape:export-ydpi="96">
  <metadata
     id="metadata2822">
    <rdf:RDF>
      <cc:Work
         rdf:about="">
        <dc:format>image/svg+xml</dc:format>
        <dc:type
           rdf:resource="http://purl.org/dc/dcmitype/StillImage" />
        <dc:title></dc:title>
      </cc:Work>
    </rdf:RDF>
  </metadata>
  <defs
     id="defs2820" />
  <sodipodi:namedview
     pagecolor="#ffffff"
     bordercolor="#666666"
     borderopacity="1"
     objecttolerance="10"
     gridtolerance="10"
     guidetolerance="10"
     inkscape:pageopacity="0"
     inkscape:pageshadow="2"
     inkscape:window-width="1314"
     inkscape:window-height="724"
     id="namedview2818"
     showgrid="false"
     inkscape:zoom="1.6170065"
     inkscape:cx="112.12534"
     inkscape:cy="105.67511"
     inkscape:window-x="39"
     inkscape:window-y="0"
     inkscape:window-maximized="0"
     inkscape:current-layer="layer2"
     inkscape:lockguides="false"
     inkscape:measure-start="240.316,176.056"
     inkscape:measure-end="241.191,24.2854" />
  <g
     inkscape:groupmode="layer"
     id="layer1"
     inkscape:label="reference"
     style="display:none">
    <g
       id="g7672">
      <use
         id="use7634"
         xlink:href="#symbol7631"
         x="0"
         y="0"
         width="100%"
         height="100%" />
      <g
         id="symbol7631" />
    </g>
    <g
       id="g7697"
       transform="matrix(0,1,1,0,-265.17551,205.04761)">
      <g
         id="g7695" />
    </g>
  </g>
  <g
     inkscape:groupmode="layer"
     id="layer2"
     inkscape:label="paths"
     style="display:inline">
    <g
       id="g8968"
       transform="matrix(1.0193332,0,0,1.025119,-2.7175231,-207.12037)">
      <g
         id="g8876">
        <g
           id="g8854"
           style="fill:#000000;stroke:#000000;stroke-width:0.75;stroke-linecap:round;stroke-linejoin:round;stroke-miterlimit:4;stroke-dasharray:none">
          <path
             id="path8845"
             d="m 36.367188,202.94531 c -0.163843,-4.6e-4 -0.318251,0.0381 -0.447266,0.12696 -0.135762,0.0935 -0.207581,0.2216 -0.238281,0.37304 -0.09221,0.45432 0.180593,1.10888 0.183593,1.60352 0.0054,0.88743 0.105469,2.66211 0.105469,2.66211 0,0 1.17012,-0.4933 1.46875,-1.00586 0.507051,-0.87029 0.801286,-2.16622 0.253906,-3.01172 -0.255435,-0.39458 -0.834644,-0.74667 -1.326171,-0.74805 z"
             style="display:inline;fill:#000000;stroke:#000000;stroke-width:0.75;stroke-linecap:round;stroke-linejoin:round;stroke-miterlimit:4;stroke-dasharray:none"
             inkscape:connector-curvature="0" />
          <path
             sodipodi:nodetypes="cccccscccccccczccccccsccccscssccccsccccsscsccccccscccccccccsscccc"
             inkscape:connector-curvature="0"
             id="path8843"
             d="m 42.878906,205.27539 c -2.158008,0.0385 -4.094037,2.08849 -5.533203,3.75195 -0.94254,1.08942 -1.740234,3.95704 -1.740234,3.95704 0,-10e-6 0.37246,-2.6606 0.03125,-4.41211 -0.62789,-0.32957 -2.08789,0.90944 -1.59961,1.99023 0.61295,3.27466 -2.28987,9.41413 -2.78125,10.18945 -0.49138,0.77532 0.12823,-2.61352 0.53711,-3.79492 0.31836,-1.84647 1.149971,-4.47063 -0.855469,-5.66211 -1.45436,-1.36142 -5.707711,0.52943 -3.775391,2.04883 1.62173,1.33071 3.706817,3.23156 2.873047,5.5625 -0.26865,1.9944 -1.968675,2.9764 -3.421875,4.05078 0.13124,2.49288 2.519153,-1.43437 3.845703,-0.87695 1.32654,0.55742 -1.163044,3.38695 -2.677734,3.37695 -1.271235,-0.008 -2.494141,-0.29883 -2.494141,-0.29883 0,0 0.308831,1.14944 0.308594,2.70313 -2.37e-4,1.55369 -2.819534,4.00427 -3.376953,2.67773 -0.55742,-1.32655 3.369833,-3.71446 0.876953,-3.8457 -1.074373,1.4532 -2.056381,3.15322 -4.050781,3.42187 -2.330931,0.83377 -4.231784,-1.25131 -5.5625,-2.87304 -1.519391,-1.93232 -3.410244,2.32103 -2.048828,3.77539 1.191486,2.00544 3.815641,1.17383 5.662109,0.85547 1.181405,-0.40888 4.570243,-1.02849 3.794922,-0.53711 -0.775322,0.49138 -6.914796,3.3942 -10.189453,2.78125 -1.0807889,-0.48828 -2.3198071,0.96976 -1.9902345,1.59765 1.7515075,0.34121 4.4121095,-0.0312 4.4121095,-0.0312 0,0 -2.865651,0.79965 -3.9550782,1.74219 -1.7743603,1.53511 -3.9908318,3.6346 -3.734375,5.9668 0.2072824,1.88502 1.5660068,4.33968 3.9941406,4.05273 1.6373126,-0.18447 2.9362966,-1.6352 2.1582036,-2.41797 -0.778094,-0.78277 -4.4164443,-0.47339 -4.820313,-2.1914 -0.6084465,-2.58827 2.7926848,-4.75374 5.029297,-6.19141 0.562123,-0.36133 1.941406,-0.5039 1.941406,-0.50391 0,0 -3.104971,1.2873 -3.7929686,2.67188 -0.4502665,0.90614 -0.8673654,2.75492 0.1054686,3.0332 1.119787,0.32031 1.240838,-1.97738 1.951172,-2.90039 0.459118,-0.59658 1.36812,-1.37317 1.488281,-1.69726 -0.330534,2.28788 0.127963,5.82455 2.31836,6.76757 1.459144,0.6282 3.838335,-0.46788 4.335937,-1.97656 0.482362,-1.46249 -0.658787,-4.84885 -2.238281,-4.04101 -1.579493,0.80783 -0.386105,4.8133 -2.070313,4.63867 -1.886951,-0.19565 -1.854451,-3.78075 -1.203125,-5.5625 0.907002,-2.48117 5.823678,-5.1246 6.275391,-4.83789 0.451713,0.2867 0.775495,0.69153 2.091797,1.19336 1.592108,0.60698 4.010858,-2.60853 3.824219,-4.41016 -0.07398,-1.06064 -0.798828,-3.0332 -0.798828,-3.0332 0,0 1.855558,0.57946 2.916015,0.69722 1.80163,0.18664 5.017136,-2.23211 4.410156,-3.82421 -0.50183,-1.31631 -0.906659,-1.64008 -1.193359,-2.0918 -0.28671,-0.45171 2.356721,-5.37034 4.837891,-6.27735 1.78175,-0.65132 5.36685,-0.68187 5.5625,1.20508 0.17463,1.68421 -3.830842,0.49083 -4.638672,2.07031 -0.80784,1.57949 2.580478,2.72066 4.042969,2.23829 1.50868,-0.4976 2.604762,-2.87679 1.976562,-4.33594 -0.94303,-2.19039 -4.481651,-2.64889 -6.769531,-2.31836 0.32409,-0.12016 1.102638,-1.03111 1.699219,-1.49023 0.92301,-0.71033 3.218747,-0.82943 2.898437,-1.94922 -0.27828,-0.97284 -2.127063,-0.55574 -3.033203,-0.10547 -1.38458,0.68799 -2.669922,3.79101 -2.669922,3.79101 0,0 0.142576,-1.37733 0.503906,-1.93945 1.43767,-2.23661 3.601183,-5.63775 6.189453,-5.0293 1.71801,0.40387 1.408637,4.04223 2.191407,4.82032 0.78277,0.77809 2.233498,-0.5209 2.417968,-2.15821 0.28695,-2.42814 -2.165761,-3.78686 -4.050781,-3.99414 -0.145762,-0.016 -0.29168,-0.0221 -0.435547,-0.0195 z"
             style="display:inline;fill:#000000;stroke:#000000;stroke-width:0.75;stroke-linecap:round;stroke-linejoin:round;stroke-miterlimit:4;stroke-dasharray:none" />
          <path
             sodipodi:nodetypes="czczczcsccccccccccccccccccccccccccsccccccsccscccssccccccccccccccccccccccccccccccccccczczczc"
             inkscape:connector-curvature="0"
             id="path8841"
             d="m 8.227773,208.15095 c 0,0 0.035342,1.45407 0.054033,1.74484 0.018691,0.29077 0.9609699,0.0362 0.9609699,0.0362 0,0 -0.025943,0.72707 0.2224231,0.93089 0.2483661,0.20382 0.969936,0.037 0.969936,0.037 0,0 0.301765,0.58522 0.682052,1.27005 0.380287,0.68483 1.001561,1.82619 0.941406,3.52344 -0.06015,1.69725 0.373039,2.90302 0.697265,4.32812 0.160975,0.70755 0.750605,1.37463 0.617188,2.0879 -0.131724,0.70419 -0.679468,1.36747 -1.314453,1.69921 -0.457347,0.23893 -1.099348,0.33842 -1.544922,0.0781 -0.34828,-0.20341 -0.5410146,-1.08203 -0.5410147,-1.08203 0,0 -1.0673149,0.87872 -1.0058593,1.46875 0.084963,0.81571 0.9593458,1.68414 1.779296,1.70117 0.857924,0.0178 1.327165,-1.0921 1.93164,-1.70117 0.360298,-0.36303 1.00586,-1.16016 1.00586,-1.16016 0,0 1.386254,2.80867 2.550781,3.78906 0.626466,0.5274 1.42195,0.97182 2.240234,1.00391 1.148314,0.045 2.393253,-0.39206 3.248047,-1.16016 0.617211,-0.55461 1.139341,-1.41242 1.082032,-2.24023 -0.0385,-0.55611 -0.494862,-1.04135 -0.927735,-1.39258 -0.538774,-0.43716 -1.247271,-0.87514 -1.933594,-0.77344 -0.652847,0.0967 -1.330339,0.61417 -1.544921,1.23828 -0.180857,0.52603 -0.06102,1.29299 0.386718,1.62305 0.311808,0.22986 0.849158,0.1554 1.158203,-0.0781 0.305608,-0.23096 0.02915,-0.94461 0.386719,-1.08203 0.355132,-0.13648 0.825767,0.20588 1.00586,0.54101 0.269449,0.50142 0.1666,1.23101 -0.154297,1.70117 -0.389781,0.57108 -1.175465,0.8026 -1.855469,0.92774 -0.764059,0.14061 -1.654461,0.16782 -2.320313,-0.23242 -0.796282,-0.47865 -1.068067,-1.521 -1.544921,-2.31836 -0.449672,-0.7519 -1.236329,-2.32032 -1.236329,-2.32032 0,0 0.920576,0.24501 1.390625,0.23243 0.949929,-0.0254 2.073417,0.0146 2.783204,-0.61719 0.468689,-0.41722 0.717603,-1.15959 0.61914,-1.7793 -0.126965,-0.7991 -1.46875,-1.93164 -1.46875,-1.93164 0,0 -0.50569,1.40451 -0.927734,2.00977 -0.229275,0.32881 -0.47798,0.70429 -0.851563,0.84961 -0.552865,0.21505 -1.30605,0.28412 -1.777343,-0.0762 -1.009991,-0.77204 -0.877667,-2.39472 -1.160157,-3.63476 -0.162808,-0.71468 -0.15449,-1.46965 -0.304687,-2.17774 0.125605,0.2077 0.125286,0.28032 0.458984,0.55469 0.333698,0.27437 1.062038,0.46993 1.353516,0.0195 0.291477,-0.45037 -0.677444,-0.64036 -1.236638,-1.37139 -0.559193,-0.73104 -0.159293,-0.95538 -0.61749,-1.52683 -0.570491,-0.7115 -1.025304,-1.23 -1.57556,-1.95725 0.682378,0.51973 1.441863,1.09256 2.062197,1.58995 0.620333,0.4974 0.968494,0.077 1.699529,0.6362 0.731035,0.55919 0.864689,1.35522 1.37304,0.96711 0.508351,-0.38811 -0.13188,-0.90448 -0.40625,-1.23818 -0.27437,-0.3337 -0.346988,-0.33338 -0.554688,-0.45898 0.708089,0.15019 1.463055,0.14187 2.177735,0.30469 1.24004,0.28248 2.862726,0.15016 3.634765,1.16015 0.360299,0.4713 0.291223,1.22446 0.07617,1.77735 -0.145321,0.37357 -0.520798,0.62229 -0.849609,0.85156 -0.60526,0.42204 -2.009766,0.92773 -2.009766,0.92773 0,0 1.13254,1.34179 1.931641,1.46875 0.619709,0.0985 1.362078,-0.15045 1.779297,-0.61914 0.631792,-0.70979 0.591787,-1.83328 0.617187,-2.7832 0.01258,-0.47005 -0.232422,-1.39063 -0.232422,-1.39063 0,0 1.568415,0.78666 2.320313,1.23633 0.797361,0.47685 1.839708,0.74863 2.318359,1.54492 0.400239,0.66585 0.373033,1.55626 0.232422,2.32032 -0.125138,0.68001 -0.356653,1.46568 -0.927734,1.85546 -0.470159,0.3209 -1.199753,0.42375 -1.701172,0.1543 -0.335132,-0.18009 -0.677499,-0.65073 -0.541016,-1.00586 0.137419,-0.35752 0.851071,-0.0811 1.082032,-0.38672 0.233523,-0.30904 0.307989,-0.84639 0.07812,-1.1582 -0.330059,-0.44772 -1.09703,-0.56763 -1.623046,-0.38672 -0.624111,0.21458 -1.141582,0.89208 -1.238282,1.54492 -0.101699,0.68633 0.336278,1.39483 0.773438,1.9336 0.35123,0.43288 0.836469,0.88923 1.392578,0.92773 0.82781,0.0573 1.685625,-0.46482 2.240234,-1.08203 0.768099,-0.8548 1.205157,-2.09974 1.160157,-3.24805 -0.03209,-0.81829 -0.476507,-1.61377 -1.003907,-2.24023 -0.980389,-1.16453 -3.789062,-2.55078 -3.789062,-2.55078 0,0 0.797126,-0.64557 1.160156,-1.00586 0.60907,-0.60448 1.718972,-1.07371 1.701172,-1.93164 -0.01703,-0.81995 -0.88546,-1.6943 -1.701172,-1.7793 -0.590029,-0.0614 -1.46875,1.00586 -1.46875,1.00586 0,0 0.87862,0.19274 1.082031,0.54102 0.26029,0.44556 0.160811,1.08757 -0.07813,1.54492 -0.33174,0.63498 -0.995033,1.18271 -1.699218,1.31445 -0.713262,0.13341 -1.380341,-0.45621 -2.087891,-0.61719 -1.4251,-0.32422 -2.895295,-0.40913 -4.328125,-0.69726 -1.794964,-0.0155 -2.838608,-0.56112 -3.523438,-0.94141 -0.68483,-0.38029 -1.192746,-0.60474 -1.192746,-0.60474 0,0 0.468863,-0.4754 0.305025,-0.79657 -0.163838,-0.32117 -1.2656935,-0.33895 -1.2656935,-0.33895 0,0 0.3330015,-0.48773 0.054197,-0.59774 -0.2788046,-0.11001 -1.7120595,-0.53053 -1.7120595,-0.53053 z"
             style="display:inline;fill:#000000;stroke:#000000;stroke-width:0.75;stroke-linecap:round;stroke-linejoin:round;stroke-miterlimit:4;stroke-dasharray:none" />
          <path
             id="path5892"
             d="m 3.9160156,235.80273 c -0.1329825,-0.0127 -0.2594663,-0.0135 -0.3730468,0.01 -0.1514411,0.0307 -0.2794982,0.10252 -0.3730469,0.23828 -0.355566,0.51606 0.095023,1.43286 0.6210937,1.77344 0.8455091,0.54738 2.1414267,0.25314 3.0117188,-0.25391 0.5125675,-0.29863 1.0058594,-1.46875 1.0058594,-1.46875 0,0 -1.774673,-0.10005 -2.6621094,-0.10547 -0.3709766,-0.002 -0.8315211,-0.15539 -1.2304688,-0.19336 z"
             style="display:inline;fill:#000000;stroke:#000000;stroke-width:0.75;stroke-linecap:round;stroke-linejoin:round;stroke-miterlimit:4;stroke-dasharray:none"
             inkscape:connector-curvature="0" />
        </g>
        <path
           style="fill:none;fill-rule:evenodd;stroke:#000000;stroke-width:0.75;stroke-linecap:round;stroke-linejoin:miter;stroke-miterlimit:4;stroke-dasharray:none;stroke-opacity:1"
           d="M 8.039547,249.87391 V 350.82109"
           id="path8856"
           inkscape:connector-curvature="0"
           sodipodi:nodetypes="cc" />
        <path
           style="fill:none;fill-rule:evenodd;stroke:#000000;stroke-width:0.75;stroke-linecap:round;stroke-linejoin:miter;stroke-miterlimit:4;stroke-dasharray:none;stroke-opacity:1"
           d="M 15.151456,245.61995 V 354.24442"
           id="path8858"
           inkscape:connector-curvature="0"
           sodipodi:nodetypes="cc" />
        <path
           inkscape:connector-curvature="0"
           id="path8860"
           d="m 11.450782,245.88175 v 106.8431"
           style="fill:none;fill-rule:evenodd;stroke:#000000;stroke-width:2;stroke-linecap:round;stroke-linejoin:miter;stroke-miterlimit:4;stroke-dasharray:none;stroke-opacity:1"
           sodipodi:nodetypes="cc" />
      </g>
      <g
         transform="rotate(-90,100.21563,299.59486)"
         id="g8894">
        <g
           style="fill:#000000;stroke:#000000;stroke-width:0.75;stroke-linecap:round;stroke-linejoin:round;stroke-miterlimit:4;stroke-dasharray:none"
           id="g8886">
          <path
             inkscape:connector-curvature="0"
             style="display:inline;fill:#000000;stroke:#000000;stroke-width:0.75;stroke-linecap:round;stroke-linejoin:round;stroke-miterlimit:4;stroke-dasharray:none"
             d="m 36.367188,202.94531 c -0.163843,-4.6e-4 -0.318251,0.0381 -0.447266,0.12696 -0.135762,0.0935 -0.207581,0.2216 -0.238281,0.37304 -0.09221,0.45432 0.180593,1.10888 0.183593,1.60352 0.0054,0.88743 0.105469,2.66211 0.105469,2.66211 0,0 1.17012,-0.4933 1.46875,-1.00586 0.507051,-0.87029 0.801286,-2.16622 0.253906,-3.01172 -0.255435,-0.39458 -0.834644,-0.74667 -1.326171,-0.74805 z"
             id="path8878" />
          <path
             style="display:inline;fill:#000000;stroke:#000000;stroke-width:0.75;stroke-linecap:round;stroke-linejoin:round;stroke-miterlimit:4;stroke-dasharray:none"
             d="m 42.878906,205.27539 c -2.158008,0.0385 -4.094037,2.08849 -5.533203,3.75195 -0.94254,1.08942 -1.740234,3.95704 -1.740234,3.95704 0,-10e-6 0.37246,-2.6606 0.03125,-4.41211 -0.62789,-0.32957 -2.08789,0.90944 -1.59961,1.99023 0.61295,3.27466 -2.28987,9.41413 -2.78125,10.18945 -0.49138,0.77532 0.12823,-2.61352 0.53711,-3.79492 0.31836,-1.84647 1.149971,-4.47063 -0.855469,-5.66211 -1.45436,-1.36142 -5.707711,0.52943 -3.775391,2.04883 1.62173,1.33071 3.706817,3.23156 2.873047,5.5625 -0.26865,1.9944 -1.968675,2.9764 -3.421875,4.05078 0.13124,2.49288 2.519153,-1.43437 3.845703,-0.87695 1.32654,0.55742 -1.163044,3.38695 -2.677734,3.37695 -1.271235,-0.008 -2.494141,-0.29883 -2.494141,-0.29883 0,0 0.308831,1.14944 0.308594,2.70313 -2.37e-4,1.55369 -2.819534,4.00427 -3.376953,2.67773 -0.55742,-1.32655 3.369833,-3.71446 0.876953,-3.8457 -1.074373,1.4532 -2.056381,3.15322 -4.050781,3.42187 -2.330931,0.83377 -4.231784,-1.25131 -5.5625,-2.87304 -1.519391,-1.93232 -3.410244,2.32103 -2.048828,3.77539 1.191486,2.00544 3.815641,1.17383 5.662109,0.85547 1.181405,-0.40888 4.570243,-1.02849 3.794922,-0.53711 -0.775322,0.49138 -6.914796,3.3942 -10.189453,2.78125 -1.0807889,-0.48828 -2.3198071,0.96976 -1.9902345,1.59765 1.7515075,0.34121 4.4121095,-0.0312 4.4121095,-0.0312 0,0 -2.865651,0.79965 -3.9550782,1.74219 -1.7743603,1.53511 -3.9908318,3.6346 -3.734375,5.9668 0.2072824,1.88502 1.5660068,4.33968 3.9941406,4.05273 1.6373126,-0.18447 2.9362966,-1.6352 2.1582036,-2.41797 -0.778094,-0.78277 -4.4164443,-0.47339 -4.820313,-2.1914 -0.6084465,-2.58827 2.7926848,-4.75374 5.029297,-6.19141 0.562123,-0.36133 1.941406,-0.5039 1.941406,-0.50391 0,0 -3.104971,1.2873 -3.7929686,2.67188 -0.4502665,0.90614 -0.8673654,2.75492 0.1054686,3.0332 1.119787,0.32031 1.240838,-1.97738 1.951172,-2.90039 0.459118,-0.59658 1.36812,-1.37317 1.488281,-1.69726 -0.330534,2.28788 0.127963,5.82455 2.31836,6.76757 1.459144,0.6282 3.838335,-0.46788 4.335937,-1.97656 0.482362,-1.46249 -0.658787,-4.84885 -2.238281,-4.04101 -1.579493,0.80783 -0.386105,4.8133 -2.070313,4.63867 -1.886951,-0.19565 -1.854451,-3.78075 -1.203125,-5.5625 0.907002,-2.48117 5.823678,-5.1246 6.275391,-4.83789 0.451713,0.2867 0.775495,0.69153 2.091797,1.19336 1.592108,0.60698 4.010858,-2.60853 3.824219,-4.41016 -0.07398,-1.06064 -0.798828,-3.0332 -0.798828,-3.0332 0,0 1.855558,0.57946 2.916015,0.69722 1.80163,0.18664 5.017136,-2.23211 4.410156,-3.82421 -0.50183,-1.31631 -0.906659,-1.64008 -1.193359,-2.0918 -0.28671,-0.45171 2.356721,-5.37034 4.837891,-6.27735 1.78175,-0.65132 5.36685,-0.68187 5.5625,1.20508 0.17463,1.68421 -3.830842,0.49083 -4.638672,2.07031 -0.80784,1.57949 2.580478,2.72066 4.042969,2.23829 1.50868,-0.4976 2.604762,-2.87679 1.976562,-4.33594 -0.94303,-2.19039 -4.481651,-2.64889 -6.769531,-2.31836 0.32409,-0.12016 1.102638,-1.03111 1.699219,-1.49023 0.92301,-0.71033 3.218747,-0.82943 2.898437,-1.94922 -0.27828,-0.97284 -2.127063,-0.55574 -3.033203,-0.10547 -1.38458,0.68799 -2.669922,3.79101 -2.669922,3.79101 0,0 0.142576,-1.37733 0.503906,-1.93945 1.43767,-2.23661 3.601183,-5.63775 6.189453,-5.0293 1.71801,0.40387 1.408637,4.04223 2.191407,4.82032 0.78277,0.77809 2.233498,-0.5209 2.417968,-2.15821 0.28695,-2.42814 -2.165761,-3.78686 -4.050781,-3.99414 -0.145762,-0.016 -0.29168,-0.0221 -0.435547,-0.0195 z"
             id="path8880"
             inkscape:connector-curvature="0"
             sodipodi:nodetypes="cccccscccccccczccccccsccccscssccccsccccsscsccccccscccccccccsscccc" />
          <path
             style="display:inline;fill:#000000;stroke:#000000;stroke-width:0.75;stroke-linecap:round;stroke-linejoin:round;stroke-miterlimit:4;stroke-dasharray:none"
             d="m 8.227773,208.15095 c 0,0 0.035342,1.45407 0.054033,1.74484 0.018691,0.29077 0.9609699,0.0362 0.9609699,0.0362 0,0 -0.025943,0.72707 0.2224231,0.93089 0.2483661,0.20382 0.969936,0.037 0.969936,0.037 0,0 0.301765,0.58522 0.682052,1.27005 0.380287,0.68483 1.001561,1.82619 0.941406,3.52344 -0.06015,1.69725 0.373039,2.90302 0.697265,4.32812 0.160975,0.70755 0.750605,1.37463 0.617188,2.0879 -0.131724,0.70419 -0.679468,1.36747 -1.314453,1.69921 -0.457347,0.23893 -1.099348,0.33842 -1.544922,0.0781 -0.34828,-0.20341 -0.5410146,-1.08203 -0.5410147,-1.08203 0,0 -1.0673149,0.87872 -1.0058593,1.46875 0.084963,0.81571 0.9593458,1.68414 1.779296,1.70117 0.857924,0.0178 1.327165,-1.0921 1.93164,-1.70117 0.360298,-0.36303 1.00586,-1.16016 1.00586,-1.16016 0,0 1.386254,2.80867 2.550781,3.78906 0.626466,0.5274 1.42195,0.97182 2.240234,1.00391 1.148314,0.045 2.393253,-0.39206 3.248047,-1.16016 0.617211,-0.55461 1.139341,-1.41242 1.082032,-2.24023 -0.0385,-0.55611 -0.494862,-1.04135 -0.927735,-1.39258 -0.538774,-0.43716 -1.247271,-0.87514 -1.933594,-0.77344 -0.652847,0.0967 -1.330339,0.61417 -1.544921,1.23828 -0.180857,0.52603 -0.06102,1.29299 0.386718,1.62305 0.311808,0.22986 0.849158,0.1554 1.158203,-0.0781 0.305608,-0.23096 0.02915,-0.94461 0.386719,-1.08203 0.355132,-0.13648 0.825767,0.20588 1.00586,0.54101 0.269449,0.50142 0.1666,1.23101 -0.154297,1.70117 -0.389781,0.57108 -1.175465,0.8026 -1.855469,0.92774 -0.764059,0.14061 -1.654461,0.16782 -2.320313,-0.23242 -0.796282,-0.47865 -1.068067,-1.521 -1.544921,-2.31836 -0.449672,-0.7519 -1.236329,-2.32032 -1.236329,-2.32032 0,0 0.920576,0.24501 1.390625,0.23243 0.949929,-0.0254 2.073417,0.0146 2.783204,-0.61719 0.468689,-0.41722 0.717603,-1.15959 0.61914,-1.7793 -0.126965,-0.7991 -1.46875,-1.93164 -1.46875,-1.93164 0,0 -0.50569,1.40451 -0.927734,2.00977 -0.229275,0.32881 -0.47798,0.70429 -0.851563,0.84961 -0.552865,0.21505 -1.30605,0.28412 -1.777343,-0.0762 -1.009991,-0.77204 -0.877667,-2.39472 -1.160157,-3.63476 -0.162808,-0.71468 -0.15449,-1.46965 -0.304687,-2.17774 0.125605,0.2077 0.125286,0.28032 0.458984,0.55469 0.333698,0.27437 1.062038,0.46993 1.353516,0.0195 0.291477,-0.45037 -0.677444,-0.64036 -1.236638,-1.37139 -0.559193,-0.73104 -0.159293,-0.95538 -0.61749,-1.52683 -0.570491,-0.7115 -1.025304,-1.23 -1.57556,-1.95725 0.682378,0.51973 1.441863,1.09256 2.062197,1.58995 0.620333,0.4974 0.968494,0.077 1.699529,0.6362 0.731035,0.55919 0.864689,1.35522 1.37304,0.96711 0.508351,-0.38811 -0.13188,-0.90448 -0.40625,-1.23818 -0.27437,-0.3337 -0.346988,-0.33338 -0.554688,-0.45898 0.708089,0.15019 1.463055,0.14187 2.177735,0.30469 1.24004,0.28248 2.862726,0.15016 3.634765,1.16015 0.360299,0.4713 0.291223,1.22446 0.07617,1.77735 -0.145321,0.37357 -0.520798,0.62229 -0.849609,0.85156 -0.60526,0.42204 -2.009766,0.92773 -2.009766,0.92773 0,0 1.13254,1.34179 1.931641,1.46875 0.619709,0.0985 1.362078,-0.15045 1.779297,-0.61914 0.631792,-0.70979 0.591787,-1.83328 0.617187,-2.7832 0.01258,-0.47005 -0.232422,-1.39063 -0.232422,-1.39063 0,0 1.568415,0.78666 2.320313,1.23633 0.797361,0.47685 1.839708,0.74863 2.318359,1.54492 0.400239,0.66585 0.373033,1.55626 0.232422,2.32032 -0.125138,0.68001 -0.356653,1.46568 -0.927734,1.85546 -0.470159,0.3209 -1.199753,0.42375 -1.701172,0.1543 -0.335132,-0.18009 -0.677499,-0.65073 -0.541016,-1.00586 0.137419,-0.35752 0.851071,-0.0811 1.082032,-0.38672 0.233523,-0.30904 0.307989,-0.84639 0.07812,-1.1582 -0.330059,-0.44772 -1.09703,-0.56763 -1.623046,-0.38672 -0.624111,0.21458 -1.141582,0.89208 -1.238282,1.54492 -0.101699,0.68633 0.336278,1.39483 0.773438,1.9336 0.35123,0.43288 0.836469,0.88923 1.392578,0.92773 0.82781,0.0573 1.685625,-0.46482 2.240234,-1.08203 0.768099,-0.8548 1.205157,-2.09974 1.160157,-3.24805 -0.03209,-0.81829 -0.476507,-1.61377 -1.003907,-2.24023 -0.980389,-1.16453 -3.789062,-2.55078 -3.789062,-2.55078 0,0 0.797126,-0.64557 1.160156,-1.00586 0.60907,-0.60448 1.718972,-1.07371 1.701172,-1.93164 -0.01703,-0.81995 -0.88546,-1.6943 -1.701172,-1.7793 -0.590029,-0.0614 -1.46875,1.00586 -1.46875,1.00586 0,0 0.87862,0.19274 1.082031,0.54102 0.26029,0.44556 0.160811,1.08757 -0.07813,1.54492 -0.33174,0.63498 -0.995033,1.18271 -1.699218,1.31445 -0.713262,0.13341 -1.380341,-0.45621 -2.087891,-0.61719 -1.4251,-0.32422 -2.895295,-0.40913 -4.328125,-0.69726 -1.794964,-0.0155 -2.838608,-0.56112 -3.523438,-0.94141 -0.68483,-0.38029 -1.192746,-0.60474 -1.192746,-0.60474 0,0 0.468863,-0.4754 0.305025,-0.79657 -0.163838,-0.32117 -1.2656935,-0.33895 -1.2656935,-0.33895 0,0 0.3330015,-0.48773 0.054197,-0.59774 -0.2788046,-0.11001 -1.7120595,-0.53053 -1.7120595,-0.53053 z"
             id="path8882"
             inkscape:connector-curvature="0"
             sodipodi:nodetypes="czczczcsccccccccccccccccccccccccccsccccccsccscccssccccccccccccccccccccccccccccccccccczczczc" />
          <path
             inkscape:connector-curvature="0"
             style="display:inline;fill:#000000;stroke:#000000;stroke-width:0.75;stroke-linecap:round;stroke-linejoin:round;stroke-miterlimit:4;stroke-dasharray:none"
             d="m 3.9160156,235.80273 c -0.1329825,-0.0127 -0.2594663,-0.0135 -0.3730468,0.01 -0.1514411,0.0307 -0.2794982,0.10252 -0.3730469,0.23828 -0.355566,0.51606 0.095023,1.43286 0.6210937,1.77344 0.8455091,0.54738 2.1414267,0.25314 3.0117188,-0.25391 0.5125675,-0.29863 1.0058594,-1.46875 1.0058594,-1.46875 0,0 -1.774673,-0.10005 -2.6621094,-0.10547 -0.3709766,-0.002 -0.8315211,-0.15539 -1.2304688,-0.19336 z"
             id="path8884" />
        </g>
        <path
           sodipodi:nodetypes="cc"
           inkscape:connector-curvature="0"
           id="path8888"
           d="M 8.039547,252.40376 V 413.38465"
           style="fill:none;fill-rule:evenodd;stroke:#000000;stroke-width:0.94711202;stroke-linecap:round;stroke-linejoin:miter;stroke-miterlimit:4;stroke-dasharray:none;stroke-opacity:1" />
        <path
           sodipodi:nodetypes="cc"
           inkscape:connector-curvature="0"
           id="path8890"
           d="m 15.151456,245.61995 v 173.2239"
           style="fill:none;fill-rule:evenodd;stroke:#000000;stroke-width:0.94711202;stroke-linecap:round;stroke-linejoin:miter;stroke-miterlimit:4;stroke-dasharray:none;stroke-opacity:1" />
        <path
           sodipodi:nodetypes="cc"
           style="fill:none;fill-rule:evenodd;stroke:#000000;stroke-width:2.5256319;stroke-linecap:round;stroke-linejoin:miter;stroke-miterlimit:4;stroke-dasharray:none;stroke-opacity:1"
           d="M 11.450782,246.03744 V 416.42059"
           id="path8892"
           inkscape:connector-curvature="0" />
      </g>
      <g
         id="g8912"
         transform="rotate(90,132.51535,331.89458)">
        <g
           id="g8904"
           style="fill:#000000;stroke:#000000;stroke-width:0.75;stroke-linecap:round;stroke-linejoin:round;stroke-miterlimit:4;stroke-dasharray:none">
          <path
             id="path8896"
             d="m 36.367188,202.94531 c -0.163843,-4.6e-4 -0.318251,0.0381 -0.447266,0.12696 -0.135762,0.0935 -0.207581,0.2216 -0.238281,0.37304 -0.09221,0.45432 0.180593,1.10888 0.183593,1.60352 0.0054,0.88743 0.105469,2.66211 0.105469,2.66211 0,0 1.17012,-0.4933 1.46875,-1.00586 0.507051,-0.87029 0.801286,-2.16622 0.253906,-3.01172 -0.255435,-0.39458 -0.834644,-0.74667 -1.326171,-0.74805 z"
             style="display:inline;fill:#000000;stroke:#000000;stroke-width:0.75;stroke-linecap:round;stroke-linejoin:round;stroke-miterlimit:4;stroke-dasharray:none"
             inkscape:connector-curvature="0" />
          <path
             sodipodi:nodetypes="cccccscccccccczccccccsccccscssccccsccccsscsccccccscccccccccsscccc"
             inkscape:connector-curvature="0"
             id="path8898"
             d="m 42.878906,205.27539 c -2.158008,0.0385 -4.094037,2.08849 -5.533203,3.75195 -0.94254,1.08942 -1.740234,3.95704 -1.740234,3.95704 0,-10e-6 0.37246,-2.6606 0.03125,-4.41211 -0.62789,-0.32957 -2.08789,0.90944 -1.59961,1.99023 0.61295,3.27466 -2.28987,9.41413 -2.78125,10.18945 -0.49138,0.77532 0.12823,-2.61352 0.53711,-3.79492 0.31836,-1.84647 1.149971,-4.47063 -0.855469,-5.66211 -1.45436,-1.36142 -5.707711,0.52943 -3.775391,2.04883 1.62173,1.33071 3.706817,3.23156 2.873047,5.5625 -0.26865,1.9944 -1.968675,2.9764 -3.421875,4.05078 0.13124,2.49288 2.519153,-1.43437 3.845703,-0.87695 1.32654,0.55742 -1.163044,3.38695 -2.677734,3.37695 -1.271235,-0.008 -2.494141,-0.29883 -2.494141,-0.29883 0,0 0.308831,1.14944 0.308594,2.70313 -2.37e-4,1.55369 -2.819534,4.00427 -3.376953,2.67773 -0.55742,-1.32655 3.369833,-3.71446 0.876953,-3.8457 -1.074373,1.4532 -2.056381,3.15322 -4.050781,3.42187 -2.330931,0.83377 -4.231784,-1.25131 -5.5625,-2.87304 -1.519391,-1.93232 -3.410244,2.32103 -2.048828,3.77539 1.191486,2.00544 3.815641,1.17383 5.662109,0.85547 1.181405,-0.40888 4.570243,-1.02849 3.794922,-0.53711 -0.775322,0.49138 -6.914796,3.3942 -10.189453,2.78125 -1.0807889,-0.48828 -2.3198071,0.96976 -1.9902345,1.59765 1.7515075,0.34121 4.4121095,-0.0312 4.4121095,-0.0312 0,0 -2.865651,0.79965 -3.9550782,1.74219 -1.7743603,1.53511 -3.9908318,3.6346 -3.734375,5.9668 0.2072824,1.88502 1.5660068,4.33968 3.9941406,4.05273 1.6373126,-0.18447 2.9362966,-1.6352 2.1582036,-2.41797 -0.778094,-0.78277 -4.4164443,-0.47339 -4.820313,-2.1914 -0.6084465,-2.58827 2.7926848,-4.75374 5.029297,-6.19141 0.562123,-0.36133 1.941406,-0.5039 1.941406,-0.50391 0,0 -3.104971,1.2873 -3.7929686,2.67188 -0.4502665,0.90614 -0.8673654,2.75492 0.1054686,3.0332 1.119787,0.32031 1.240838,-1.97738 1.951172,-2.90039 0.459118,-0.59658 1.36812,-1.37317 1.488281,-1.69726 -0.330534,2.28788 0.127963,5.82455 2.31836,6.76757 1.459144,0.6282 3.838335,-0.46788 4.335937,-1.97656 0.482362,-1.46249 -0.658787,-4.84885 -2.238281,-4.04101 -1.579493,0.80783 -0.386105,4.8133 -2.070313,4.63867 -1.886951,-0.19565 -1.854451,-3.78075 -1.203125,-5.5625 0.907002,-2.48117 5.823678,-5.1246 6.275391,-4.83789 0.451713,0.2867 0.775495,0.69153 2.091797,1.19336 1.592108,0.60698 4.010858,-2.60853 3.824219,-4.41016 -0.07398,-1.06064 -0.798828,-3.0332 -0.798828,-3.0332 0,0 1.855558,0.57946 2.916015,0.69722 1.80163,0.18664 5.017136,-2.23211 4.410156,-3.82421 -0.50183,-1.31631 -0.906659,-1.64008 -1.193359,-2.0918 -0.28671,-0.45171 2.356721,-5.37034 4.837891,-6.27735 1.78175,-0.65132 5.36685,-0.68187 5.5625,1.20508 0.17463,1.68421 -3.830842,0.49083 -4.638672,2.07031 -0.80784,1.57949 2.580478,2.72066 4.042969,2.23829 1.50868,-0.4976 2.604762,-2.87679 1.976562,-4.33594 -0.94303,-2.19039 -4.481651,-2.64889 -6.769531,-2.31836 0.32409,-0.12016 1.102638,-1.03111 1.699219,-1.49023 0.92301,-0.71033 3.218747,-0.82943 2.898437,-1.94922 -0.27828,-0.97284 -2.127063,-0.55574 -3.033203,-0.10547 -1.38458,0.68799 -2.669922,3.79101 -2.669922,3.79101 0,0 0.142576,-1.37733 0.503906,-1.93945 1.43767,-2.23661 3.601183,-5.63775 6.189453,-5.0293 1.71801,0.40387 1.408637,4.04223 2.191407,4.82032 0.78277,0.77809 2.233498,-0.5209 2.417968,-2.15821 0.28695,-2.42814 -2.165761,-3.78686 -4.050781,-3.99414 -0.145762,-0.016 -0.29168,-0.0221 -0.435547,-0.0195 z"
             style="display:inline;fill:#000000;stroke:#000000;stroke-width:0.75;stroke-linecap:round;stroke-linejoin:round;stroke-miterlimit:4;stroke-dasharray:none" />
          <path
             sodipodi:nodetypes="czczczcsccccccccccccccccccccccccccsccccccsccscccssccccccccccccccccccccccccccccccccccczczczc"
             inkscape:connector-curvature="0"
             id="path8900"
             d="m 8.227773,208.15095 c 0,0 0.035342,1.45407 0.054033,1.74484 0.018691,0.29077 0.9609699,0.0362 0.9609699,0.0362 0,0 -0.025943,0.72707 0.2224231,0.93089 0.2483661,0.20382 0.969936,0.037 0.969936,0.037 0,0 0.301765,0.58522 0.682052,1.27005 0.380287,0.68483 1.001561,1.82619 0.941406,3.52344 -0.06015,1.69725 0.373039,2.90302 0.697265,4.32812 0.160975,0.70755 0.750605,1.37463 0.617188,2.0879 -0.131724,0.70419 -0.679468,1.36747 -1.314453,1.69921 -0.457347,0.23893 -1.099348,0.33842 -1.544922,0.0781 -0.34828,-0.20341 -0.5410146,-1.08203 -0.5410147,-1.08203 0,0 -1.0673149,0.87872 -1.0058593,1.46875 0.084963,0.81571 0.9593458,1.68414 1.779296,1.70117 0.857924,0.0178 1.327165,-1.0921 1.93164,-1.70117 0.360298,-0.36303 1.00586,-1.16016 1.00586,-1.16016 0,0 1.386254,2.80867 2.550781,3.78906 0.626466,0.5274 1.42195,0.97182 2.240234,1.00391 1.148314,0.045 2.393253,-0.39206 3.248047,-1.16016 0.617211,-0.55461 1.139341,-1.41242 1.082032,-2.24023 -0.0385,-0.55611 -0.494862,-1.04135 -0.927735,-1.39258 -0.538774,-0.43716 -1.247271,-0.87514 -1.933594,-0.77344 -0.652847,0.0967 -1.330339,0.61417 -1.544921,1.23828 -0.180857,0.52603 -0.06102,1.29299 0.386718,1.62305 0.311808,0.22986 0.849158,0.1554 1.158203,-0.0781 0.305608,-0.23096 0.02915,-0.94461 0.386719,-1.08203 0.355132,-0.13648 0.825767,0.20588 1.00586,0.54101 0.269449,0.50142 0.1666,1.23101 -0.154297,1.70117 -0.389781,0.57108 -1.175465,0.8026 -1.855469,0.92774 -0.764059,0.14061 -1.654461,0.16782 -2.320313,-0.23242 -0.796282,-0.47865 -1.068067,-1.521 -1.544921,-2.31836 -0.449672,-0.7519 -1.236329,-2.32032 -1.236329,-2.32032 0,0 0.920576,0.24501 1.390625,0.23243 0.949929,-0.0254 2.073417,0.0146 2.783204,-0.61719 0.468689,-0.41722 0.717603,-1.15959 0.61914,-1.7793 -0.126965,-0.7991 -1.46875,-1.93164 -1.46875,-1.93164 0,0 -0.50569,1.40451 -0.927734,2.00977 -0.229275,0.32881 -0.47798,0.70429 -0.851563,0.84961 -0.552865,0.21505 -1.30605,0.28412 -1.777343,-0.0762 -1.009991,-0.77204 -0.877667,-2.39472 -1.160157,-3.63476 -0.162808,-0.71468 -0.15449,-1.46965 -0.304687,-2.17774 0.125605,0.2077 0.125286,0.28032 0.458984,0.55469 0.333698,0.27437 1.062038,0.46993 1.353516,0.0195 0.291477,-0.45037 -0.677444,-0.64036 -1.236638,-1.37139 -0.559193,-0.73104 -0.159293,-0.95538 -0.61749,-1.52683 -0.570491,-0.7115 -1.025304,-1.23 -1.57556,-1.95725 0.682378,0.51973 1.441863,1.09256 2.062197,1.58995 0.620333,0.4974 0.968494,0.077 1.699529,0.6362 0.731035,0.55919 0.864689,1.35522 1.37304,0.96711 0.508351,-0.38811 -0.13188,-0.90448 -0.40625,-1.23818 -0.27437,-0.3337 -0.346988,-0.33338 -0.554688,-0.45898 0.708089,0.15019 1.463055,0.14187 2.177735,0.30469 1.24004,0.28248 2.862726,0.15016 3.634765,1.16015 0.360299,0.4713 0.291223,1.22446 0.07617,1.77735 -0.145321,0.37357 -0.520798,0.62229 -0.849609,0.85156 -0.60526,0.42204 -2.009766,0.92773 -2.009766,0.92773 0,0 1.13254,1.34179 1.931641,1.46875 0.619709,0.0985 1.362078,-0.15045 1.779297,-0.61914 0.631792,-0.70979 0.591787,-1.83328 0.617187,-2.7832 0.01258,-0.47005 -0.232422,-1.39063 -0.232422,-1.39063 0,0 1.568415,0.78666 2.320313,1.23633 0.797361,0.47685 1.839708,0.74863 2.318359,1.54492 0.400239,0.66585 0.373033,1.55626 0.232422,2.32032 -0.125138,0.68001 -0.356653,1.46568 -0.927734,1.85546 -0.470159,0.3209 -1.199753,0.42375 -1.701172,0.1543 -0.335132,-0.18009 -0.677499,-0.65073 -0.541016,-1.00586 0.137419,-0.35752 0.851071,-0.0811 1.082032,-0.38672 0.233523,-0.30904 0.307989,-0.84639 0.07812,-1.1582 -0.330059,-0.44772 -1.09703,-0.56763 -1.623046,-0.38672 -0.624111,0.21458 -1.141582,0.89208 -1.238282,1.54492 -0.101699,0.68633 0.336278,1.39483 0.773438,1.9336 0.35123,0.43288 0.836469,0.88923 1.392578,0.92773 0.82781,0.0573 1.685625,-0.46482 2.240234,-1.08203 0.768099,-0.8548 1.205157,-2.09974 1.160157,-3.24805 -0.03209,-0.81829 -0.476507,-1.61377 -1.003907,-2.24023 -0.980389,-1.16453 -3.789062,-2.55078 -3.789062,-2.55078 0,0 0.797126,-0.64557 1.160156,-1.00586 0.60907,-0.60448 1.718972,-1.07371 1.701172,-1.93164 -0.01703,-0.81995 -0.88546,-1.6943 -1.701172,-1.7793 -0.590029,-0.0614 -1.46875,1.00586 -1.46875,1.00586 0,0 0.87862,0.19274 1.082031,0.54102 0.26029,0.44556 0.160811,1.08757 -0.07813,1.54492 -0.33174,0.63498 -0.995033,1.18271 -1.699218,1.31445 -0.713262,0.13341 -1.380341,-0.45621 -2.087891,-0.61719 -1.4251,-0.32422 -2.895295,-0.40913 -4.328125,-0.69726 -1.794964,-0.0155 -2.838608,-0.56112 -3.523438,-0.94141 -0.68483,-0.38029 -1.192746,-0.60474 -1.192746,-0.60474 0,0 0.468863,-0.4754 0.305025,-0.79657 -0.163838,-0.32117 -1.2656935,-0.33895 -1.2656935,-0.33895 0,0 0.3330015,-0.48773 0.054197,-0.59774 -0.2788046,-0.11001 -1.7120595,-0.53053 -1.7120595,-0.53053 z"
             style="display:inline;fill:#000000;stroke:#000000;stroke-width:0.75;stroke-linecap:round;stroke-linejoin:round;stroke-miterlimit:4;stroke-dasharray:none" />
          <path
             id="path8902"
             d="m 3.9160156,235.80273 c -0.1329825,-0.0127 -0.2594663,-0.0135 -0.3730468,0.01 -0.1514411,0.0307 -0.2794982,0.10252 -0.3730469,0.23828 -0.355566,0.51606 0.095023,1.43286 0.6210937,1.77344 0.8455091,0.54738 2.1414267,0.25314 3.0117188,-0.25391 0.5125675,-0.29863 1.0058594,-1.46875 1.0058594,-1.46875 0,0 -1.774673,-0.10005 -2.6621094,-0.10547 -0.3709766,-0.002 -0.8315211,-0.15539 -1.2304688,-0.19336 z"
             style="display:inline;fill:#000000;stroke:#000000;stroke-width:0.75;stroke-linecap:round;stroke-linejoin:round;stroke-miterlimit:4;stroke-dasharray:none"
             inkscape:connector-curvature="0" />
        </g>
        <path
           style="fill:none;fill-rule:evenodd;stroke:#000000;stroke-width:0.94711202;stroke-linecap:round;stroke-linejoin:miter;stroke-miterlimit:4;stroke-dasharray:none;stroke-opacity:1"
           d="M 8.039547,252.40376 V 413.38465"
           id="path8906"
           inkscape:connector-curvature="0"
           sodipodi:nodetypes="cc" />
        <path
           style="fill:none;fill-rule:evenodd;stroke:#000000;stroke-width:0.94711202;stroke-linecap:round;stroke-linejoin:miter;stroke-miterlimit:4;stroke-dasharray:none;stroke-opacity:1"
           d="m 15.151456,245.61995 v 173.2239"
           id="path8908"
           inkscape:connector-curvature="0"
           sodipodi:nodetypes="cc" />
        <path
           inkscape:connector-curvature="0"
           id="path8910"
           d="M 11.450782,246.03744 V 416.42059"
           style="fill:none;fill-rule:evenodd;stroke:#000000;stroke-width:2.5256319;stroke-linecap:round;stroke-linejoin:miter;stroke-miterlimit:4;stroke-dasharray:none;stroke-opacity:1"
           sodipodi:nodetypes="cc" />
      </g>
      <g
         transform="rotate(-180,132.65291,299.7203)"
         id="g8930">
        <g
           style="fill:#000000;stroke:#000000;stroke-width:0.75;stroke-linecap:round;stroke-linejoin:round;stroke-miterlimit:4;stroke-dasharray:none"
           id="g8922">
          <path
             inkscape:connector-curvature="0"
             style="display:inline;fill:#000000;stroke:#000000;stroke-width:0.75;stroke-linecap:round;stroke-linejoin:round;stroke-miterlimit:4;stroke-dasharray:none"
             d="m 36.367188,202.94531 c -0.163843,-4.6e-4 -0.318251,0.0381 -0.447266,0.12696 -0.135762,0.0935 -0.207581,0.2216 -0.238281,0.37304 -0.09221,0.45432 0.180593,1.10888 0.183593,1.60352 0.0054,0.88743 0.105469,2.66211 0.105469,2.66211 0,0 1.17012,-0.4933 1.46875,-1.00586 0.507051,-0.87029 0.801286,-2.16622 0.253906,-3.01172 -0.255435,-0.39458 -0.834644,-0.74667 -1.326171,-0.74805 z"
             id="path8914" />
          <path
             style="display:inline;fill:#000000;stroke:#000000;stroke-width:0.75;stroke-linecap:round;stroke-linejoin:round;stroke-miterlimit:4;stroke-dasharray:none"
             d="m 42.878906,205.27539 c -2.158008,0.0385 -4.094037,2.08849 -5.533203,3.75195 -0.94254,1.08942 -1.740234,3.95704 -1.740234,3.95704 0,-10e-6 0.37246,-2.6606 0.03125,-4.41211 -0.62789,-0.32957 -2.08789,0.90944 -1.59961,1.99023 0.61295,3.27466 -2.28987,9.41413 -2.78125,10.18945 -0.49138,0.77532 0.12823,-2.61352 0.53711,-3.79492 0.31836,-1.84647 1.149971,-4.47063 -0.855469,-5.66211 -1.45436,-1.36142 -5.707711,0.52943 -3.775391,2.04883 1.62173,1.33071 3.706817,3.23156 2.873047,5.5625 -0.26865,1.9944 -1.968675,2.9764 -3.421875,4.05078 0.13124,2.49288 2.519153,-1.43437 3.845703,-0.87695 1.32654,0.55742 -1.163044,3.38695 -2.677734,3.37695 -1.271235,-0.008 -2.494141,-0.29883 -2.494141,-0.29883 0,0 0.308831,1.14944 0.308594,2.70313 -2.37e-4,1.55369 -2.819534,4.00427 -3.376953,2.67773 -0.55742,-1.32655 3.369833,-3.71446 0.876953,-3.8457 -1.074373,1.4532 -2.056381,3.15322 -4.050781,3.42187 -2.330931,0.83377 -4.231784,-1.25131 -5.5625,-2.87304 -1.519391,-1.93232 -3.410244,2.32103 -2.048828,3.77539 1.191486,2.00544 3.815641,1.17383 5.662109,0.85547 1.181405,-0.40888 4.570243,-1.02849 3.794922,-0.53711 -0.775322,0.49138 -6.914796,3.3942 -10.189453,2.78125 -1.0807889,-0.48828 -2.3198071,0.96976 -1.9902345,1.59765 1.7515075,0.34121 4.4121095,-0.0312 4.4121095,-0.0312 0,0 -2.865651,0.79965 -3.9550782,1.74219 -1.7743603,1.53511 -3.9908318,3.6346 -3.734375,5.9668 0.2072824,1.88502 1.5660068,4.33968 3.9941406,4.05273 1.6373126,-0.18447 2.9362966,-1.6352 2.1582036,-2.41797 -0.778094,-0.78277 -4.4164443,-0.47339 -4.820313,-2.1914 -0.6084465,-2.58827 2.7926848,-4.75374 5.029297,-6.19141 0.562123,-0.36133 1.941406,-0.5039 1.941406,-0.50391 0,0 -3.104971,1.2873 -3.7929686,2.67188 -0.4502665,0.90614 -0.8673654,2.75492 0.1054686,3.0332 1.119787,0.32031 1.240838,-1.97738 1.951172,-2.90039 0.459118,-0.59658 1.36812,-1.37317 1.488281,-1.69726 -0.330534,2.28788 0.127963,5.82455 2.31836,6.76757 1.459144,0.6282 3.838335,-0.46788 4.335937,-1.97656 0.482362,-1.46249 -0.658787,-4.84885 -2.238281,-4.04101 -1.579493,0.80783 -0.386105,4.8133 -2.070313,4.63867 -1.886951,-0.19565 -1.854451,-3.78075 -1.203125,-5.5625 0.907002,-2.48117 5.823678,-5.1246 6.275391,-4.83789 0.451713,0.2867 0.775495,0.69153 2.091797,1.19336 1.592108,0.60698 4.010858,-2.60853 3.824219,-4.41016 -0.07398,-1.06064 -0.798828,-3.0332 -0.798828,-3.0332 0,0 1.855558,0.57946 2.916015,0.69722 1.80163,0.18664 5.017136,-2.23211 4.410156,-3.82421 -0.50183,-1.31631 -0.906659,-1.64008 -1.193359,-2.0918 -0.28671,-0.45171 2.356721,-5.37034 4.837891,-6.27735 1.78175,-0.65132 5.36685,-0.68187 5.5625,1.20508 0.17463,1.68421 -3.830842,0.49083 -4.638672,2.07031 -0.80784,1.57949 2.580478,2.72066 4.042969,2.23829 1.50868,-0.4976 2.604762,-2.87679 1.976562,-4.33594 -0.94303,-2.19039 -4.481651,-2.64889 -6.769531,-2.31836 0.32409,-0.12016 1.102638,-1.03111 1.699219,-1.49023 0.92301,-0.71033 3.218747,-0.82943 2.898437,-1.94922 -0.27828,-0.97284 -2.127063,-0.55574 -3.033203,-0.10547 -1.38458,0.68799 -2.669922,3.79101 -2.669922,3.79101 0,0 0.142576,-1.37733 0.503906,-1.93945 1.43767,-2.23661 3.601183,-5.63775 6.189453,-5.0293 1.71801,0.40387 1.408637,4.04223 2.191407,4.82032 0.78277,0.77809 2.233498,-0.5209 2.417968,-2.15821 0.28695,-2.42814 -2.165761,-3.78686 -4.050781,-3.99414 -0.145762,-0.016 -0.29168,-0.0221 -0.435547,-0.0195 z"
             id="path8916"
             inkscape:connector-curvature="0"
             sodipodi:nodetypes="cccccscccccccczccccccsccccscssccccsccccsscsccccccscccccccccsscccc" />
          <path
             style="display:inline;fill:#000000;stroke:#000000;stroke-width:0.75;stroke-linecap:round;stroke-linejoin:round;stroke-miterlimit:4;stroke-dasharray:none"
             d="m 8.227773,208.15095 c 0,0 0.035342,1.45407 0.054033,1.74484 0.018691,0.29077 0.9609699,0.0362 0.9609699,0.0362 0,0 -0.025943,0.72707 0.2224231,0.93089 0.2483661,0.20382 0.969936,0.037 0.969936,0.037 0,0 0.301765,0.58522 0.682052,1.27005 0.380287,0.68483 1.001561,1.82619 0.941406,3.52344 -0.06015,1.69725 0.373039,2.90302 0.697265,4.32812 0.160975,0.70755 0.750605,1.37463 0.617188,2.0879 -0.131724,0.70419 -0.679468,1.36747 -1.314453,1.69921 -0.457347,0.23893 -1.099348,0.33842 -1.544922,0.0781 -0.34828,-0.20341 -0.5410146,-1.08203 -0.5410147,-1.08203 0,0 -1.0673149,0.87872 -1.0058593,1.46875 0.084963,0.81571 0.9593458,1.68414 1.779296,1.70117 0.857924,0.0178 1.327165,-1.0921 1.93164,-1.70117 0.360298,-0.36303 1.00586,-1.16016 1.00586,-1.16016 0,0 1.386254,2.80867 2.550781,3.78906 0.626466,0.5274 1.42195,0.97182 2.240234,1.00391 1.148314,0.045 2.393253,-0.39206 3.248047,-1.16016 0.617211,-0.55461 1.139341,-1.41242 1.082032,-2.24023 -0.0385,-0.55611 -0.494862,-1.04135 -0.927735,-1.39258 -0.538774,-0.43716 -1.247271,-0.87514 -1.933594,-0.77344 -0.652847,0.0967 -1.330339,0.61417 -1.544921,1.23828 -0.180857,0.52603 -0.06102,1.29299 0.386718,1.62305 0.311808,0.22986 0.849158,0.1554 1.158203,-0.0781 0.305608,-0.23096 0.02915,-0.94461 0.386719,-1.08203 0.355132,-0.13648 0.825767,0.20588 1.00586,0.54101 0.269449,0.50142 0.1666,1.23101 -0.154297,1.70117 -0.389781,0.57108 -1.175465,0.8026 -1.855469,0.92774 -0.764059,0.14061 -1.654461,0.16782 -2.320313,-0.23242 -0.796282,-0.47865 -1.068067,-1.521 -1.544921,-2.31836 -0.449672,-0.7519 -1.236329,-2.32032 -1.236329,-2.32032 0,0 0.920576,0.24501 1.390625,0.23243 0.949929,-0.0254 2.073417,0.0146 2.783204,-0.61719 0.468689,-0.41722 0.717603,-1.15959 0.61914,-1.7793 -0.126965,-0.7991 -1.46875,-1.93164 -1.46875,-1.93164 0,0 -0.50569,1.40451 -0.927734,2.00977 -0.229275,0.32881 -0.47798,0.70429 -0.851563,0.84961 -0.552865,0.21505 -1.30605,0.28412 -1.777343,-0.0762 -1.009991,-0.77204 -0.877667,-2.39472 -1.160157,-3.63476 -0.162808,-0.71468 -0.15449,-1.46965 -0.304687,-2.17774 0.125605,0.2077 0.125286,0.28032 0.458984,0.55469 0.333698,0.27437 1.062038,0.46993 1.353516,0.0195 0.291477,-0.45037 -0.677444,-0.64036 -1.236638,-1.37139 -0.559193,-0.73104 -0.159293,-0.95538 -0.61749,-1.52683 -0.570491,-0.7115 -1.025304,-1.23 -1.57556,-1.95725 0.682378,0.51973 1.441863,1.09256 2.062197,1.58995 0.620333,0.4974 0.968494,0.077 1.699529,0.6362 0.731035,0.55919 0.864689,1.35522 1.37304,0.96711 0.508351,-0.38811 -0.13188,-0.90448 -0.40625,-1.23818 -0.27437,-0.3337 -0.346988,-0.33338 -0.554688,-0.45898 0.708089,0.15019 1.463055,0.14187 2.177735,0.30469 1.24004,0.28248 2.862726,0.15016 3.634765,1.16015 0.360299,0.4713 0.291223,1.22446 0.07617,1.77735 -0.145321,0.37357 -0.520798,0.62229 -0.849609,0.85156 -0.60526,0.42204 -2.009766,0.92773 -2.009766,0.92773 0,0 1.13254,1.34179 1.931641,1.46875 0.619709,0.0985 1.362078,-0.15045 1.779297,-0.61914 0.631792,-0.70979 0.591787,-1.83328 0.617187,-2.7832 0.01258,-0.47005 -0.232422,-1.39063 -0.232422,-1.39063 0,0 1.568415,0.78666 2.320313,1.23633 0.797361,0.47685 1.839708,0.74863 2.318359,1.54492 0.400239,0.66585 0.373033,1.55626 0.232422,2.32032 -0.125138,0.68001 -0.356653,1.46568 -0.927734,1.85546 -0.470159,0.3209 -1.199753,0.42375 -1.701172,0.1543 -0.335132,-0.18009 -0.677499,-0.65073 -0.541016,-1.00586 0.137419,-0.35752 0.851071,-0.0811 1.082032,-0.38672 0.233523,-0.30904 0.307989,-0.84639 0.07812,-1.1582 -0.330059,-0.44772 -1.09703,-0.56763 -1.623046,-0.38672 -0.624111,0.21458 -1.141582,0.89208 -1.238282,1.54492 -0.101699,0.68633 0.336278,1.39483 0.773438,1.9336 0.35123,0.43288 0.836469,0.88923 1.392578,0.92773 0.82781,0.0573 1.685625,-0.46482 2.240234,-1.08203 0.768099,-0.8548 1.205157,-2.09974 1.160157,-3.24805 -0.03209,-0.81829 -0.476507,-1.61377 -1.003907,-2.24023 -0.980389,-1.16453 -3.789062,-2.55078 -3.789062,-2.55078 0,0 0.797126,-0.64557 1.160156,-1.00586 0.60907,-0.60448 1.718972,-1.07371 1.701172,-1.93164 -0.01703,-0.81995 -0.88546,-1.6943 -1.701172,-1.7793 -0.590029,-0.0614 -1.46875,1.00586 -1.46875,1.00586 0,0 0.87862,0.19274 1.082031,0.54102 0.26029,0.44556 0.160811,1.08757 -0.07813,1.54492 -0.33174,0.63498 -0.995033,1.18271 -1.699218,1.31445 -0.713262,0.13341 -1.380341,-0.45621 -2.087891,-0.61719 -1.4251,-0.32422 -2.895295,-0.40913 -4.328125,-0.69726 -1.794964,-0.0155 -2.838608,-0.56112 -3.523438,-0.94141 -0.68483,-0.38029 -1.192746,-0.60474 -1.192746,-0.60474 0,0 0.468863,-0.4754 0.305025,-0.79657 -0.163838,-0.32117 -1.2656935,-0.33895 -1.2656935,-0.33895 0,0 0.3330015,-0.48773 0.054197,-0.59774 -0.2788046,-0.11001 -1.7120595,-0.53053 -1.7120595,-0.53053 z"
             id="path8918"
             inkscape:connector-curvature="0"
             sodipodi:nodetypes="czczczcsccccccccccccccccccccccccccsccccccsccscccssccccccccccccccccccccccccccccccccccczczczc" />
          <path
             inkscape:connector-curvature="0"
             style="display:inline;fill:#000000;stroke:#000000;stroke-width:0.75;stroke-linecap:round;stroke-linejoin:round;stroke-miterlimit:4;stroke-dasharray:none"
             d="m 3.9160156,235.80273 c -0.1329825,-0.0127 -0.2594663,-0.0135 -0.3730468,0.01 -0.1514411,0.0307 -0.2794982,0.10252 -0.3730469,0.23828 -0.355566,0.51606 0.095023,1.43286 0.6210937,1.77344 0.8455091,0.54738 2.1414267,0.25314 3.0117188,-0.25391 0.5125675,-0.29863 1.0058594,-1.46875 1.0058594,-1.46875 0,0 -1.774673,-0.10005 -2.6621094,-0.10547 -0.3709766,-0.002 -0.8315211,-0.15539 -1.2304688,-0.19336 z"
             id="path8920" />
        </g>
        <path
           sodipodi:nodetypes="cc"
           inkscape:connector-curvature="0"
           id="path8924"
           d="M 8.039547,249.87391 V 350.82109"
           style="fill:none;fill-rule:evenodd;stroke:#000000;stroke-width:0.75;stroke-linecap:round;stroke-linejoin:miter;stroke-miterlimit:4;stroke-dasharray:none;stroke-opacity:1" />
        <path
           sodipodi:nodetypes="cc"
           inkscape:connector-curvature="0"
           id="path8926"
           d="M 15.151456,245.61995 V 354.24442"
           style="fill:none;fill-rule:evenodd;stroke:#000000;stroke-width:0.75;stroke-linecap:round;stroke-linejoin:miter;stroke-miterlimit:4;stroke-dasharray:none;stroke-opacity:1" />
        <path
           sodipodi:nodetypes="cc"
           style="fill:none;fill-rule:evenodd;stroke:#000000;stroke-width:2;stroke-linecap:round;stroke-linejoin:miter;stroke-miterlimit:4;stroke-dasharray:none;stroke-opacity:1"
           d="m 11.450782,245.88175 v 106.8431"
           id="path8928"
           inkscape:connector-curvature="0" />
      </g>
    </g>
  </g>
</svg>
